<?xml version="1.0" encoding="UTF-8" standalone="no"?>
<svg
   id="Capa_1"
   viewBox="0 0 88.513902 65.497138"
   version="1.1"
   sodipodi:docname="LogoOpalPrincipal.svg"
   width="88.513901"
   height="65.497139"
   inkscape:version="1.3.2 (091e20e, 2023-11-25, custom)"
   inkscape:export-filename="..\LogoOpal.png"
   inkscape:export-xdpi="96"
   inkscape:export-ydpi="96"
   xmlns:inkscape="http://www.inkscape.org/namespaces/inkscape"
   xmlns:sodipodi="http://sodipodi.sourceforge.net/DTD/sodipodi-0.dtd"
   xmlns="http://www.w3.org/2000/svg"
   xmlns:svg="http://www.w3.org/2000/svg">
  <sodipodi:namedview
     id="namedview7"
     pagecolor="#ffffff"
     bordercolor="#000000"
     borderopacity="0.25"
     inkscape:showpageshadow="2"
     inkscape:pageopacity="0.0"
     inkscape:pagecheckerboard="0"
     inkscape:deskcolor="#d1d1d1"
     showgrid="false"
     inkscape:zoom="0.46875"
     inkscape:cx="262.4"
     inkscape:cy="33.066667"
     inkscape:window-width="1920"
     inkscape:window-height="1009"
     inkscape:window-x="-8"
     inkscape:window-y="-8"
     inkscape:window-maximized="1"
     inkscape:current-layer="Capa_1" />
  <defs
     id="defs1">
    <style
       id="style1">
      .cls-1 {
        fill: #58cd37;
      }

      .cls-2 {
        fill: #429a29;
      }

      .cls-3 {
        fill: #56601f;
      }
    </style>
  </defs>
  <g
     id="g2"
     transform="matrix(0.05814974,0,0,0.06267249,-11.561804,-1.094575)">
    <path
       class="cls-2"
       d="m 1721,609.24 c 0,2.64 -0.07,5.27 -0.07,7.91 -0.21,6.91 -0.71,13.82 -1.42,20.59 -0.14,0.78 -0.21,1.57 -0.28,2.35 -0.43,3.78 -1,7.48 -1.57,11.18 -1,5.98 -2.14,11.97 -3.49,17.88 -15.6,68.03 -56.63,127.72 -108.92,177.51 -0.78,0.71 -1.64,1.5 -2.42,2.28 -2.71,2.56 -5.48,5.13 -8.26,7.62 -10.9,9.9 -22.22,19.3 -33.76,28.21 -2.85,2.21 -5.7,4.42 -8.62,6.55 -1.57,1.21 -3.13,2.35 -4.77,3.49 -2.85,2.14 -5.77,4.2 -8.69,6.27 -0.5,0.29 -1,0.64 -1.5,1.07 -3.06,2.07 -6.06,4.13 -9.12,6.2 -25.07,17.02 -50.93,32.13 -76.58,45.16 -11.9,6.05 -23.93,11.82 -36.12,17.24 -7.91,3.63 -15.96,7.12 -24.01,10.4 -3.92,1.64 -7.91,3.28 -11.82,4.84 -12.18,4.84 -24.43,9.47 -36.83,13.89 -3.13,1.14 -6.34,2.28 -9.55,3.35 -0.93,0.28 -1.78,0.64 -2.71,0.93 -0.71,0.21 -1.35,0.43 -2.07,0.64 -6.77,2.35 -13.46,4.49 -20.23,6.55 -0.43,0.14 -0.85,0.21 -1.28,0.43 -38.68,12.11 -78.14,21.8 -117.75,29.49 -9.47,1.78 -19.02,3.42 -28.56,4.92 -1.07,0.21 -2.14,0.43 -3.21,0.5 -3.7,0.64 -7.41,1.21 -11.11,1.78 -56.49,8.76 -113.62,13.39 -170.82,13.96 -10.33,0.14 -20.73,0.14 -31.13,0 -57.2,-0.57 -114.4,-5.2 -170.89,-13.96 -3.13,-0.5 -6.34,-1 -9.55,-1.5 -1.57,-0.21 -3.21,-0.5 -4.77,-0.78 -9.55,-1.5 -19.09,-3.13 -28.56,-4.92 -39.61,-7.69 -79.07,-17.38 -117.68,-29.49 -0.43,-0.07 -0.85,-0.21 -1.28,-0.43 -6.84,-2.07 -13.53,-4.2 -20.23,-6.55 -1.85,-0.57 -3.63,-1.14 -5.41,-1.78 -2.99,-1.07 -5.98,-2.07 -8.98,-3.13 -8.48,-2.99 -16.88,-6.05 -25.29,-9.4 -3.78,-1.42 -7.48,-2.92 -11.25,-4.42 -4.06,-1.64 -8.05,-3.28 -12.11,-4.92 -20.37,-8.41 -40.39,-17.67 -60.05,-27.64 -25.64,-13.04 -51.5,-28.14 -76.58,-45.16 -3.06,-1.99 -6.06,-4.06 -9.12,-6.2 -0.5,-0.36 -1,-0.71 -1.5,-1.07 -2.92,-2.07 -5.77,-4.13 -8.69,-6.27 -1.57,-1.14 -3.21,-2.35 -4.77,-3.49 -2.92,-2.21 -5.77,-4.35 -8.62,-6.55 -15.46,-11.97 -30.35,-24.72 -44.45,-38.11 -52.07,-49.58 -93.03,-109.13 -108.77,-176.87 -0.28,-1.14 -0.5,-2.28 -0.78,-3.42 -0.5,-2.35 -1,-4.63 -1.42,-6.98 -0.36,-1.92 -0.71,-3.92 -1.07,-5.91 -0.07,-0.57 -0.14,-1.07 -0.29,-1.57 -0.71,-4.56 -1.35,-9.12 -1.85,-13.68 -0.78,-6.98 -1.28,-14.1 -1.5,-21.3 -0.07,-5.7 -0.07,-11.4 0.14,-17.17 0.07,-3.56 0.28,-7.12 0.57,-10.69 0,-0.43 0.21,-0.85 0.64,-1.14 0.14,-0.14 0.28,-0.29 0.5,-0.36 0.14,-0.07 0.28,-0.14 0.43,-0.14 0.14,-0.07 0.36,-0.07 0.5,-0.07 0.21,0 0.43,0.07 0.64,0.14 0.64,0.21 1.14,0.71 1.21,1.5 0,0.07 2.07,14.67 2.07,14.82 l 0.93,7.27 c 0.93,3.92 3.7,17.81 4.63,21.58 l 4.27,13.96 1.64,5.27 c 0.21,1 0.57,1.92 0.93,2.85 1.92,5.63 4.06,11.18 6.41,16.6 0.5,1.35 1.07,2.64 1.64,3.92 l 5.7,11.68 2.49,5.2 c 0.57,1.14 1.14,2.28 1.78,3.42 0.14,0.36 0.36,0.71 0.57,1.07 0.64,1 1.21,2.07 1.85,3.13 18.09,31.63 40.67,59.62 66.39,84.48 1.71,1.71 3.35,3.28 5.06,4.84 0.07,0.07 0.14,0.14 0.21,0.21 44.09,39.46 95.31,72.73 151.59,100.3 1.5,0.71 2.99,1.42 4.49,2.14 4.35,2.07 8.76,4.13 13.25,6.13 2.49,1.21 4.99,2.35 7.48,3.35 7.14,3.2 14.39,6.26 21.67,9.28 5.94,2.45 11.94,4.85 18.01,7.19 1.17,0.45 2.33,0.92 3.5,1.37 120.04,45.72 266.21,71.34 415.56,73.2 9.55,0.07 19.09,0.07 28.56,0 158.89,-1.98 314.16,-30.85 438.22,-82.22 6.06,-2.52 12.13,-5.03 18.1,-7.68 2.85,-1.28 5.7,-2.56 8.62,-3.85 4.92,-2.21 9.76,-4.49 14.53,-6.77 1.5,-0.64 2.99,-1.42 4.49,-2.14 56.27,-27.57 107.49,-60.83 151.59,-100.3 1.78,-1.64 3.56,-3.35 5.27,-5.06 25.72,-24.86 48.3,-52.86 66.39,-84.48 0.93,-1.71 1.92,-3.28 2.78,-4.92 0.64,-1.21 1.28,-2.42 1.92,-3.63 l 1.99,-4.27 5.56,-11.54 c 0.64,-1.35 1.21,-2.71 1.71,-4.06 2.21,-5.06 4.2,-10.26 6.05,-15.46 0.64,-1.78 1.28,-3.63 1.78,-5.49 l 1.14,-3.78 4.35,-13.96 c 0.14,-0.5 0.28,-1.14 0.5,-1.99 0.14,-0.78 0.36,-1.64 0.57,-2.64 1.14,-5.7 2.85,-14.03 3.56,-16.95 l 0.93,-7.27 c 0,-0.14 2.07,-14.75 2.07,-14.82 0.14,-0.78 0.57,-1.28 1.21,-1.5 0.28,-0.14 0.57,-0.21 0.93,-0.14 0.07,0 0.14,0 0.21,0.07 0.14,0 0.29,0.07 0.43,0.14 0.14,0.07 0.36,0.21 0.5,0.36 0.43,0.28 0.64,0.71 0.64,1.14 0.5,6.77 0.78,13.46 0.78,20.16 z"
       id="path1" />
    <path
       class="cls-2"
       d="m 1721,470.76 c 0,-2.64 -0.07,-5.27 -0.07,-7.91 -0.21,-6.91 -0.71,-13.82 -1.42,-20.59 -0.14,-0.78 -0.21,-1.57 -0.28,-2.35 -0.43,-3.78 -1,-7.48 -1.57,-11.18 -1,-5.98 -2.14,-11.97 -3.49,-17.88 -15.6,-68.03 -56.63,-127.72 -108.92,-177.51 -0.78,-0.71 -1.64,-1.5 -2.42,-2.28 -2.71,-2.56 -5.48,-5.13 -8.26,-7.62 -10.9,-9.9 -22.22,-19.3 -33.76,-28.21 -2.85,-2.21 -5.7,-4.42 -8.62,-6.55 -1.57,-1.21 -3.13,-2.35 -4.77,-3.49 -2.85,-2.14 -5.77,-4.2 -8.69,-6.27 -0.5,-0.29 -1,-0.64 -1.5,-1.07 -3.06,-2.07 -6.06,-4.13 -9.12,-6.2 -25.07,-17.02 -50.93,-32.13 -76.58,-45.16 -11.9,-6.05 -23.93,-11.82 -36.12,-17.24 -7.91,-3.63 -15.96,-7.12 -24.01,-10.4 -3.92,-1.64 -7.91,-3.28 -11.82,-4.84 -12.18,-4.84 -24.43,-9.47 -36.83,-13.89 -3.13,-1.14 -6.34,-2.28 -9.55,-3.35 -0.93,-0.28 -1.78,-0.64 -2.71,-0.93 -0.71,-0.21 -1.35,-0.43 -2.07,-0.64 -6.77,-2.35 -13.46,-4.49 -20.23,-6.55 -0.43,-0.14 -0.85,-0.21 -1.28,-0.43 -38.68,-12.11 -78.14,-21.8 -117.75,-29.49 -9.47,-1.78 -19.02,-3.42 -28.56,-4.92 -1.07,-0.21 -2.14,-0.43 -3.21,-0.5 -3.7,-0.64 -7.41,-1.21 -11.11,-1.78 -56.49,-8.76 -113.62,-13.39 -170.82,-13.96 -10.33,-0.14 -20.73,-0.14 -31.13,0 -57.2,0.57 -114.4,5.2 -170.89,13.96 -3.13,0.5 -6.34,1 -9.55,1.5 -1.57,0.21 -3.21,0.5 -4.77,0.78 -9.55,1.5 -19.09,3.13 -28.56,4.92 -39.61,7.69 -79.07,17.38 -117.68,29.49 -0.43,0.07 -0.85,0.21 -1.28,0.43 -6.84,2.07 -13.53,4.2 -20.23,6.55 -1.85,0.57 -3.63,1.14 -5.41,1.78 -2.99,1.07 -5.98,2.07 -8.98,3.13 -8.48,2.99 -16.88,6.05 -25.29,9.4 -3.78,1.42 -7.48,2.92 -11.25,4.42 -4.06,1.64 -8.05,3.28 -12.11,4.92 -20.37,8.41 -40.39,17.67 -60.05,27.64 -25.64,13.04 -51.5,28.14 -76.58,45.16 -3.06,1.99 -6.06,4.06 -9.12,6.2 -0.5,0.36 -1,0.71 -1.5,1.07 -2.92,2.07 -5.77,4.13 -8.69,6.27 -1.57,1.14 -3.21,2.35 -4.77,3.49 -2.92,2.21 -5.77,4.35 -8.62,6.55 -15.46,11.97 -30.35,24.72 -44.45,38.11 -52.07,49.58 -93.03,109.13 -108.77,176.87 -0.28,1.14 -0.5,2.28 -0.78,3.42 -0.5,2.35 -1,4.63 -1.42,6.98 -0.36,1.92 -0.71,3.92 -1.07,5.91 -0.07,0.57 -0.14,1.07 -0.29,1.57 -0.71,4.56 -1.35,9.12 -1.85,13.68 -0.78,6.98 -1.28,14.1 -1.5,21.3 -0.07,5.7 -0.07,11.4 0.14,17.17 0.07,3.56 0.28,7.12 0.57,10.69 0,0.43 0.21,0.85 0.64,1.14 0.14,0.14 0.28,0.29 0.5,0.36 0.14,0.07 0.28,0.14 0.43,0.14 0.14,0.07 0.36,0.07 0.5,0.07 0.21,0 0.43,-0.07 0.64,-0.14 0.64,-0.21 1.14,-0.71 1.21,-1.5 0,-0.07 2.07,-14.67 2.07,-14.82 l 0.93,-7.27 c 0.93,-3.92 3.7,-17.81 4.63,-21.58 l 4.27,-13.96 1.64,-5.27 c 0.21,-1 0.57,-1.92 0.93,-2.85 1.92,-5.63 4.06,-11.18 6.41,-16.6 0.5,-1.35 1.07,-2.64 1.64,-3.92 l 5.7,-11.68 2.49,-5.2 c 0.57,-1.14 1.14,-2.28 1.78,-3.42 0.14,-0.36 0.36,-0.71 0.57,-1.07 0.64,-1 1.21,-2.07 1.85,-3.13 18.09,-31.63 40.67,-59.62 66.39,-84.48 1.71,-1.71 3.35,-3.28 5.06,-4.84 0.07,-0.07 0.14,-0.14 0.21,-0.21 44.09,-39.46 95.31,-72.73 151.59,-100.3 1.5,-0.71 2.99,-1.42 4.49,-2.14 4.35,-2.07 8.76,-4.13 13.25,-6.13 2.49,-1.21 4.99,-2.35 7.48,-3.35 7.14,-3.2 14.39,-6.26 21.67,-9.28 5.94,-2.45 11.94,-4.85 18.01,-7.19 1.17,-0.45 2.33,-0.92 3.5,-1.37 120.04,-45.72 266.21,-71.34 415.56,-73.2 9.55,-0.07 19.09,-0.07 28.56,0 158.89,1.98 314.16,30.85 438.22,82.22 6.06,2.52 12.13,5.03 18.1,7.68 2.85,1.28 5.7,2.56 8.62,3.85 4.92,2.21 9.76,4.49 14.53,6.77 1.5,0.64 2.99,1.42 4.49,2.14 56.27,27.57 107.49,60.83 151.59,100.3 1.78,1.64 3.56,3.35 5.27,5.06 25.72,24.86 48.3,52.86 66.39,84.48 0.93,1.71 1.92,3.28 2.78,4.92 0.64,1.21 1.28,2.42 1.92,3.63 l 1.99,4.27 5.56,11.54 c 0.64,1.35 1.21,2.71 1.71,4.06 2.21,5.06 4.2,10.26 6.05,15.46 0.64,1.78 1.28,3.63 1.78,5.49 l 1.14,3.78 4.35,13.96 c 0.14,0.5 0.28,1.14 0.5,1.99 0.14,0.78 0.36,1.64 0.57,2.64 1.14,5.7 2.85,14.03 3.56,16.95 l 0.93,7.27 c 0,0.14 2.07,14.75 2.07,14.82 0.14,0.78 0.57,1.28 1.21,1.5 0.28,0.14 0.57,0.21 0.93,0.14 0.07,0 0.14,0 0.21,-0.07 0.14,0 0.29,-0.07 0.43,-0.14 0.14,-0.07 0.36,-0.21 0.5,-0.36 0.43,-0.28 0.64,-0.71 0.64,-1.14 0.5,-6.77 0.78,-13.46 0.78,-20.16 z"
       id="path2" />
  </g>
  <g
     id="g6"
     transform="matrix(0.05814974,0,0,0.06267249,-11.561804,-1.094575)">
    <path
       class="cls-3"
       d="m 543.45,380.4 c 49.44,0 90.82,15.65 124.13,46.93 33.31,31.29 49.97,69.81 49.97,115.54 0,45.73 -16.62,83.76 -49.85,115.33 -33.24,31.57 -73.76,47.36 -121.58,47.36 -47.82,0 -89.27,-15.71 -122.58,-47.14 -33.31,-31.43 -49.96,-69.45 -49.96,-114.07 0,-29.74 7.58,-57.32 22.76,-82.71 15.17,-25.39 35.86,-45.28 62.06,-59.67 26.21,-14.38 54.56,-21.57 85.06,-21.57 z m 1.44,30.1 c -24.15,0 -47.05,5.97 -68.68,17.91 -21.64,11.93 -38.53,28.01 -50.68,48.23 -12.15,20.22 -18.23,42.76 -18.23,67.61 0,36.79 13.45,67.86 40.34,93.2 26.89,25.35 59.31,38.02 97.25,38.02 25.34,0 48.79,-5.83 70.35,-17.48 21.56,-11.65 38.38,-27.59 50.45,-47.81 12.08,-20.22 18.12,-42.69 18.12,-67.4 0,-24.71 -6.04,-46.8 -18.12,-66.66 -12.08,-19.87 -29.08,-35.77 -51.01,-47.71 -21.93,-11.94 -45.2,-17.91 -69.79,-17.91 z"
       id="path3" />
    <path
       class="cls-3"
       d="m 783,388 h 65.47 c 37.37,0 62.57,1.55 75.62,4.64 18.68,4.36 33.95,13.32 45.81,26.89 11.86,13.57 17.8,30.62 17.8,51.15 0,20.53 -5.78,37.72 -17.35,51.15 -11.57,13.43 -27.5,22.46 -47.82,27.1 C 907.7,552.3 879.97,554 839.35,554 H 816 v 144 h -33 z m 32,31 v 105 l 55.25,0.63 c 22.33,0 38.68,-1.92 49.04,-5.77 10.35,-3.85 18.49,-10.08 24.41,-18.69 5.91,-8.61 8.87,-18.23 8.87,-28.88 0,-10.65 -2.96,-19.84 -8.87,-28.45 -5.92,-8.61 -13.72,-14.74 -23.41,-18.38 C 910.6,420.82 894.74,419 872.7,419 h -57.69 z"
       id="path4" />
    <path
       class="cls-3"
       d="m 1185.36,388 152.44,310 h -35.28 l -51.41,-102 h -140.82 l -50.92,102 h -36.44 l 154.44,-310 h 8 z m -4.12,65.94 L 1125.3,566 h 111.61 z"
       id="path5" />
    <path
       class="cls-3"
       d="m 1388,388 h 33 v 280 h 126 v 30 h -159 z"
       id="path6" />
  </g>
  <path
     class="cls-1"
     d="m 87.190395,32.783035 c -0.004,15.570361 -25.95396,24.573888 -28.29216,25.123526 -3.06624,0.721367 -6.42963,1.155057 -6.42963,1.155057 -0.33087,0.04447 -0.66174,0.08461 -0.993183,0.120325 -2.039892,0.227505 -4.092,0.361001 -6.140036,0.396722 3.084842,-4.023577 5.259647,-7.019943 5.539923,-7.540756 0.247142,-0.459389 0.336107,-0.94259 0.336107,-0.94259 0.03258,-0.179871 0.04887,-0.364132 0.04887,-0.551519 0,-0.659943 -0.227358,-1.230887 -0.686739,-1.707825 -0.459387,-0.476939 -1.017626,-0.713208 -1.679937,-0.713208 -0.698972,0 -1.278725,0.249428 -1.742179,0.748937 -0.463452,0.503881 -0.723966,1.20393 -0.790258,2.113931 h -1.055992 c 0,0 0.389606,-2.129606 1.080998,-2.874783 0.691981,-0.745798 1.545035,-1.120587 2.559759,-1.120587 1.014701,0 1.818339,0.352845 2.439961,1.049139 0.621616,0.700682 0.932126,1.526699 0.932126,2.477447 0,0.66495 -0.14479,1.294813 -0.44309,1.879551 -0.298317,0.580345 -0.869925,1.375026 -1.727045,2.375283 l -0.376813,0.433065 c 7.402458,-0.654302 21.428768,-2.934323 31.253158,-12.295085 5.34571,-5.093392 5.69112,-8.703963 5.69112,-10.161096 0.003,-4.956763 -3.9821,-8.601168 -5.69112,-10.165475 -15.56204,-14.237315 -58.01192,-14.237315 -73.5739553,0 -1.713088,1.567438 -5.693437,5.209336 -5.691112,10.165475 0.0014,1.591884 0.412863,5.083996 5.691112,10.161096 9.0975263,8.750338 21.2450063,11.23906 28.6131613,12.022462 v -7.644164 h 1.104847 v 4.951133 h 5.582381 v -4.951133 h 1.04669 v 12.659852 h -1.046671 v -6.580618 h -5.582379 v 5.703201 H 36.07623 C 33.899687,58.79401 31.735938,58.406053 29.596611,57.906568 21.905144,56.042675 14.316607,52.769297 8.3673007,47.034767 6.9513547,45.669759 6.1704087,44.710869 5.6778737,44.04717 c -1.41885,-1.911513 -4.32285,-5.824154 -4.32343,-11.264135 -0.0013,-5.442471 2.905161,-9.357624 4.32343,-11.268509 0.60883,-0.820384 1.39676,-1.741669 2.689427,-2.987601 C 14.317183,12.792398 21.905144,9.519016 29.596611,7.655134 32.045875,7.084183 34.524223,6.660518 37.019427,6.38413 c 4.799671,-0.543992 9.656924,-0.543992 14.456607,0 0,0 4.012901,0.449992 7.422811,1.271004 7.8915,1.900224 28.29449,11.321156 28.29216,25.128534 z"
     id="path7"
     style="stroke-width:0.0603688" />
</svg>
